<?xml version="1.0" encoding="UTF-8"?>
<!DOCTYPE svg PUBLIC "-//W3C//DTD SVG 1.1//EN" "http://www.w3.org/Graphics/SVG/1.1/DTD/svg11.dtd">
<!-- Creator: CorelDRAW -->
<svg xmlns="http://www.w3.org/2000/svg" xml:space="preserve" width="1.28502in" height="1.34128in" style="shape-rendering:geometricPrecision; text-rendering:geometricPrecision; image-rendering:optimizeQuality; fill-rule:evenodd; clip-rule:evenodd"
viewBox="0 0 0.248484 0.259362"
 xmlns:xlink="http://www.w3.org/1999/xlink">
 <defs>
  <style type="text/css">
   <![CDATA[
    .str0 {stroke:#1F1A17;stroke-width:0.0107427;stroke-linecap:round;stroke-linejoin:round}
    .fil0 {fill:none}
   ]]>
  </style>
 </defs>
 <g id="Layer_x0020_1">
  <metadata id="CorelCorpID_0Corel-Layer"/>
  <path class="fil0 str0" d="M0.143196 0.0324206c0,0.015921 0.0161586,0.0320796 0.0320796,0.0320796 -0.015921,0 -0.0320796,0.0161586 -0.0320796,0.0320796 0,-0.015921 -0.0161586,-0.0320796 -0.0320796,-0.0320796 0.015921,0 0.0320796,-0.0161586 0.0320796,-0.0320796zm0.0999349 0.164127c-0.0233376,0.0346459 -0.0629274,0.057443 -0.107833,0.057443 -0.071744,0 -0.129926,-0.0581822 -0.129926,-0.129926 0,-0.0529194 0.0316593,-0.0984549 0.0770632,-0.118711 -0.0139493,0.0207073 -0.0220944,0.0456482 -0.0220944,0.072487 0,0.071744 0.0581822,0.129926 0.129926,0.129926 0.0188254,0 0.0367121,-0.00401356 0.0528638,-0.0112193z"/>
 </g>
</svg>
